<svg xmlns="http://www.w3.org/2000/svg" version="1.1" viewBox="0 0 35 43.75" x="0px" y="0px"><path d="M14.961 1.958c-7.174 0-13.004 5.831-13.004 13.006s5.83 13.002 13.004 13.002c3.155 0 6.045-1.128 8.299-3.004l0.352-0.291 8.152 8.152c0.146 0.147 0.337 0.219 0.529 0.219 0.191 0 0.38-0.071 0.527-0.219 0.296-0.296 0.296-0.761 0-1.057l-8.152-8.152 0.291-0.352c1.875-2.254 3.004-5.144 3.004-8.299 0-7.175-5.828-13.006-13.002-13.006zM14.961 3.454c6.342 0 11.508 5.169 11.508 11.51s-5.167 11.508-11.508 11.508-11.51-5.167-11.51-11.508c0-6.341 5.168-11.51 11.51-11.51z" fill="#fff"/></svg>